<svg width="24" height="24" viewBox="0 0 24 24" fill="none" xmlns="http://www.w3.org/2000/svg">
<path d="M19.8545 13.2726L21.9597 6.27346C22.0043 6.12466 22.012 5.96806 21.9821 5.81596C21.9522 5.66387 21.8856 5.52045 21.7874 5.39697C21.6893 5.2735 21.5623 5.17335 21.4165 5.1044C21.2707 5.03545 21.11 4.99958 20.9471 4.99962H7.02098L6.39467 2.74491C6.3354 2.53141 6.2034 2.34256 6.01927 2.20781C5.83514 2.07306 5.60923 1.99999 5.37679 2H3.05262C2.77345 2 2.50571 2.10534 2.3083 2.29286C2.1109 2.48037 2 2.73469 2 2.99987C2 3.26506 2.1109 3.51938 2.3083 3.70689C2.50571 3.89441 2.77345 3.99975 3.05262 3.99975H4.56628L5.19785 6.25447V6.26447V6.27346L7.30308 13.2726L8.08833 16.2582C7.56848 16.4772 7.12052 16.8254 6.79175 17.2661C6.46297 17.7069 6.26559 18.2237 6.22044 18.7622C6.17529 19.3007 6.28404 19.8407 6.53523 20.3253C6.78641 20.81 7.17069 21.2211 7.6475 21.5155C8.12431 21.8099 8.67595 21.9764 9.24417 21.9977C9.81239 22.0189 10.3761 21.894 10.8758 21.6362C11.3755 21.3783 11.7926 20.997 12.0831 20.5327C12.3736 20.0683 12.5266 19.538 12.5262 18.9979C12.5227 18.6565 12.4572 18.3182 12.3325 17.998H14.8251C14.7004 18.3182 14.6349 18.6565 14.6314 18.9979C14.6314 19.5911 14.8166 20.1711 15.1636 20.6644C15.5106 21.1577 16.0038 21.5421 16.5808 21.7692C17.1578 21.9962 17.7928 22.0556 18.4053 21.9399C19.0179 21.8241 19.5806 21.5384 20.0222 21.1189C20.4638 20.6994 20.7646 20.1649 20.8864 19.5831C21.0083 19.0012 20.9457 18.3981 20.7067 17.85C20.4677 17.3019 20.063 16.8334 19.5437 16.5038C19.0243 16.1742 18.4138 15.9982 17.7892 15.9982H10.1894L9.66305 13.9985H18.8419C19.0708 13.9986 19.2935 13.9277 19.4762 13.7967C19.659 13.6657 19.7918 13.4817 19.8545 13.2726ZM17.7892 17.998C17.9974 17.998 18.201 18.0566 18.3741 18.1665C18.5472 18.2764 18.6821 18.4325 18.7617 18.6152C18.8414 18.7979 18.8623 18.999 18.8216 19.1929C18.781 19.3869 18.6808 19.5651 18.5336 19.7049C18.3864 19.8447 18.1988 19.94 17.9946 19.9785C17.7904 20.0171 17.5788 19.9973 17.3864 19.9216C17.1941 19.846 17.0297 19.7178 16.914 19.5534C16.7984 19.3889 16.7366 19.1956 16.7366 18.9979C16.7366 18.7327 16.8475 18.4784 17.0449 18.2909C17.2423 18.1033 17.5101 17.998 17.7892 17.998ZM10.4209 18.9979C10.4209 19.1956 10.3592 19.3889 10.2435 19.5534C10.1279 19.7178 9.96348 19.846 9.77114 19.9216C9.57879 19.9973 9.36715 20.0171 9.16296 19.9785C8.95877 19.94 8.77121 19.8447 8.624 19.7049C8.47679 19.5651 8.37654 19.3869 8.33593 19.1929C8.29531 18.999 8.31616 18.7979 8.39583 18.6152C8.4755 18.4325 8.61041 18.2764 8.78351 18.1665C8.95662 18.0566 9.16013 17.998 9.36832 17.998C9.64749 17.998 9.91522 18.1033 10.1126 18.2909C10.31 18.4784 10.4209 18.7327 10.4209 18.9979ZM15.684 9.999H14.6314V10.9989C14.6314 11.2641 14.5205 11.5184 14.3231 11.7059C14.1257 11.8934 13.858 11.9987 13.5788 11.9987C13.2996 11.9987 13.0319 11.8934 12.8345 11.7059C12.6371 11.5184 12.5262 11.2641 12.5262 10.9989V9.999H11.4735C11.1944 9.999 10.9266 9.89365 10.7292 9.70614C10.5318 9.51863 10.4209 9.26431 10.4209 8.99912C10.4209 8.73394 10.5318 8.47962 10.7292 8.29211C10.9266 8.10459 11.1944 7.99925 11.4735 7.99925H12.5262V6.99937C12.5262 6.73419 12.6371 6.47987 12.8345 6.29236C13.0319 6.10484 13.2996 5.9995 13.5788 5.9995C13.858 5.9995 14.1257 6.10484 14.3231 6.29236C14.5205 6.47987 14.6314 6.73419 14.6314 6.99937V7.99925H15.684C15.9632 7.99925 16.2309 8.10459 16.4283 8.29211C16.6257 8.47962 16.7366 8.73394 16.7366 8.99912C16.7366 9.26431 16.6257 9.51863 16.4283 9.70614C16.2309 9.89365 15.9632 9.999 15.684 9.999Z" fill="white"/>
</svg>
